<?xml version="1.0" standalone="no"?>
<!DOCTYPE svg PUBLIC "-//W3C//DTD SVG 20010904//EN"
 "http://www.w3.org/TR/2001/REC-SVG-20010904/DTD/svg10.dtd">
<svg version="1.0" xmlns="http://www.w3.org/2000/svg"
 width="385.000000pt" height="290.000000pt" viewBox="0 0 385.000000 290.000000"
 preserveAspectRatio="xMidYMid meet">

<g transform="translate(0.000000,290.000000) scale(0.100000,-0.100000)"
fill="#000000" stroke="none">
<path d="M2553 2623 c-7 -2 -13 -20 -13 -39 0 -72 -79 -101 -120 -44 -27 38
-38 38 -84 -3 l-38 -32 22 -43 23 -43 -21 -27 c-18 -24 -26 -27 -71 -24 -51 3
-52 2 -67 -34 -22 -52 -15 -77 25 -88 67 -19 68 -95 1 -122 -43 -18 -47 -30
-28 -85 14 -43 24 -49 62 -38 46 13 53 12 77 -22 l22 -32 -24 -43 -24 -44 30
-25 c49 -40 64 -41 97 -6 32 34 50 37 88 18 20 -10 26 -22 30 -57 l5 -45 49
-3 c27 -2 53 1 58 6 4 4 12 28 16 53 7 41 10 45 46 54 36 9 40 7 65 -23 14
-18 31 -32 36 -32 20 0 85 51 85 66 0 9 -9 29 -20 45 -20 27 -20 30 -5 59 20
38 34 44 78 32 41 -11 52 -6 66 31 21 55 14 76 -28 93 -67 26 -64 90 4 119 39
15 44 37 24 94 -11 32 -12 32 -61 26 -39 -6 -53 -4 -69 11 -23 20 -25 62 -4
90 23 31 18 49 -23 78 -48 33 -53 33 -80 -4 -15 -20 -31 -30 -48 -30 -44 0
-61 16 -68 64 -4 26 -13 47 -22 50 -18 7 -74 7 -91 -1z m118 -215 c49 -14 114
-69 138 -117 80 -157 -31 -340 -207 -341 -93 0 -174 51 -213 135 -22 48 -25
142 -6 188 47 111 173 170 288 135z"/>
<path d="M1350 2333 c-30 -11 -71 -58 -79 -93 -5 -19 -8 -192 -7 -385 2 -390
3 -397 70 -429 30 -14 100 -16 643 -16 584 0 609 1 640 20 47 28 56 54 61 169
l5 103 -34 -7 c-19 -4 -37 -9 -41 -12 -5 -2 -8 -42 -8 -88 0 -75 -2 -85 -22
-99 -20 -14 -94 -16 -608 -16 -514 0 -588 2 -608 16 l-22 15 0 358 c0 293 3
361 14 377 14 18 31 19 390 22 361 3 376 3 376 22 0 10 3 25 6 34 6 14 -32 16
-377 15 -211 0 -391 -3 -399 -6z"/>
<path d="M1200 1304 c0 -26 19 -53 50 -69 42 -22 540 -22 540 -1 0 8 7 22 16
30 13 13 42 16 162 16 81 0 152 -4 158 -8 6 -4 16 -17 23 -29 12 -23 12 -23
272 -23 l261 0 29 29 c16 16 29 39 29 50 l0 21 -770 0 c-692 0 -770 -2 -770
-16z"/>
<path d="M710 740 c0 -17 8 -19 83 -22 l82 -3 3 -82 3 -83 -91 0 -90 0 0 85
c0 69 -3 85 -15 85 -12 0 -15 -18 -15 -105 l0 -105 105 0 c98 0 105 1 105 20
0 11 7 20 15 20 12 0 15 17 15 89 0 113 -8 121 -122 121 -71 0 -78 -2 -78 -20z"/>
<path d="M940 651 c0 -136 5 -141 122 -141 71 0 78 2 78 20 0 17 -8 19 -82 22
l-83 3 -3 103 c-2 82 -6 102 -17 102 -12 0 -15 -20 -15 -109z"/>
<path d="M1150 655 c0 -87 3 -105 15 -105 12 0 15 18 15 105 0 87 -3 105 -15
105 -12 0 -15 -18 -15 -105z"/>
<path d="M1240 740 c0 -13 -7 -20 -20 -20 -19 0 -20 -7 -20 -105 0 -98 1 -105
20 -105 19 0 20 7 20 105 l0 106 83 -3 82 -3 0 -40 0 -40 -67 -3 c-60 -3 -68
-5 -68 -22 0 -18 7 -20 61 -20 59 0 96 11 111 34 4 6 8 29 8 51 0 69 -26 85
-134 85 -69 0 -76 -2 -76 -20z"/>
<path d="M1470 656 c0 -101 1 -105 26 -125 23 -18 41 -21 115 -21 82 0 89 2
89 20 0 18 -8 20 -92 22 l-93 3 -3 103 c-2 94 -4 102 -22 102 -19 0 -20 -7
-20 -104z"/>
<path d="M1760 740 c0 -19 7 -20 100 -20 93 0 100 1 100 20 0 19 -7 20 -100
20 -93 0 -100 -1 -100 -20z"/>
<path d="M1980 718 c0 -24 6 -55 14 -69 11 -22 11 -29 0 -44 -8 -10 -14 -36
-14 -57 0 -31 4 -38 20 -38 16 0 20 7 20 38 0 43 14 62 47 62 16 0 23 6 23 19
0 15 -8 21 -32 23 -32 3 -33 4 -36 56 -3 44 -6 52 -23 52 -16 0 -19 -7 -19
-42z"/>
<path d="M2188 708 c-3 -52 -4 -53 -35 -56 -24 -2 -33 -8 -33 -22 0 -14 9 -20
33 -22 31 -3 32 -5 35 -50 3 -40 6 -48 23 -48 16 0 19 7 19 44 0 25 -6 51 -14
58 -11 12 -11 17 0 33 8 10 14 40 14 67 0 41 -3 48 -19 48 -17 0 -20 -8 -23
-52z"/>
<path d="M2420 740 c0 -13 -7 -20 -20 -20 -24 0 -27 -31 -7 -70 12 -23 19 -25
102 -30 l90 -5 3 -32 3 -33 -81 0 c-62 0 -82 3 -86 15 -9 22 -34 18 -34 -4 0
-35 38 -51 122 -51 71 0 78 2 78 20 0 13 7 20 20 20 25 0 28 45 4 78 -13 19
-24 22 -89 22 -93 0 -105 5 -105 41 l0 29 80 0 c62 0 82 -3 86 -15 7 -17 44
-21 44 -5 0 6 -11 22 -25 35 -22 22 -32 25 -105 25 -73 0 -80 -2 -80 -20z"/>
<path d="M2690 740 c0 -13 -7 -20 -20 -20 -18 0 -20 -7 -20 -83 0 -116 5 -121
119 -125 87 -4 91 -3 91 17 0 14 6 21 20 21 18 0 20 7 20 80 0 73 -3 83 -25
105 -22 22 -32 25 -105 25 -73 0 -80 -2 -80 -20z m168 -108 l3 -83 -83 3 -83
3 -3 83 -3 83 83 -3 83 -3 3 -83z"/>
<path d="M2960 753 c-33 -12 -40 -36 -40 -140 0 -85 3 -103 15 -103 12 0 15
17 15 89 0 49 3 96 6 105 5 13 24 16 105 16 92 0 99 1 99 20 0 19 -6 20 -92
19 -51 0 -100 -3 -108 -6z"/>
<path d="M3190 741 c0 -17 8 -20 48 -23 l47 -3 3 -102 c3 -96 4 -103 23 -103
20 0 21 5 17 106 -3 97 -5 107 -27 125 -15 12 -39 19 -67 19 -37 0 -44 -3 -44
-19z"/>
<path d="M3330 740 c0 -17 7 -20 50 -20 43 0 50 3 50 20 0 17 -7 20 -50 20
-43 0 -50 -3 -50 -20z"/>
<path d="M1720 631 c0 -116 5 -121 142 -121 91 0 98 1 98 20 0 18 -8 20 -102
22 l-103 3 -3 83 c-2 64 -6 82 -17 82 -12 0 -15 -18 -15 -89z"/>
<path d="M1780 635 c0 -12 16 -15 80 -15 64 0 80 3 80 15 0 12 -16 15 -80 15
-64 0 -80 -3 -80 -15z"/>
<path d="M2980 625 c0 -12 16 -15 80 -15 64 0 80 3 80 15 0 12 -16 15 -80 15
-64 0 -80 -3 -80 -15z"/>
</g>
</svg>
